# xmcd
#
# Track frame offsets: 
#        150
#        7290
#        26150
#        43875
#        56494
#        79966
#        92689
#        120549
#        152575
#        159880
#        190380
#        217509
#        223489
#        245915
#
# Disc length: 3406 seconds
#
# Revision: 0
# Processed by: cddbd v1.5.2PL0 Copyright (c) Steve Scherf et al.
# Submitted via: ExactAudioCopy v0.95b4
#
DISCID=c40d4c0e
DTITLE=Фольклорный ансамбль "Венец" (Новосибирск) - Духовные стихи
DYEAR=1900
DGENRE=Folklore
TTITLE0=Праведное солнце
TTITLE1=Вечер сумеркам настало
TTITLE2=Самарянка
TTITLE3=Мудры девы
TTITLE4=Перед другом я сидел
TTITLE5=Душа моя грустью убита
TTITLE6=Вот подходят остальные веки
TTITLE7=Завистью гонима
TTITLE8=Старец и Пятница
TTITLE9=Жили два брата Лазаря
TTITLE10=Прилетало два голубя
TTITLE11=Прощайте, милые живые
TTITLE12=О чём скорбить
TTITLE13=Не унывай, душа моя
EXTD=
EXTT0=
EXTT1=
EXTT2=
EXTT3=
EXTT4=
EXTT5=
EXTT6=
EXTT7=
EXTT8=
EXTT9=
EXTT10=
EXTT11=
EXTT12=
EXTT13=
PLAYORDER=
